<?xml version="1.0" encoding="UTF-8"?><svg id="Layer_1" xmlns="http://www.w3.org/2000/svg" viewBox="0 0 925.95 226.88"><defs><style>.cls-1{fill:#fff;}</style></defs><g><g><path class="cls-1" d="M375.44,104.35l18.5-19.06,.36-.37,.26-.8,2.94-8.94c.04-.13,.08-.28,.11-.42,.36-1.88-.86-3.69-2.74-4.06-1.88-.36-3.69,.86-4.06,2.74l-1.7,8.72-16.01,20.14c-.49,.62-.44,1.52,.13,2.07,.61,.6,1.59,.58,2.19-.03Z"/><path class="cls-1" d="M375.08,92.34c.77,.38,1.7,.07,2.08-.69l6.31-12.63,.21-.42-.03-.89-.31-9.4c0-.14-.02-.3-.04-.43-.3-1.89-2.08-3.17-3.96-2.87-1.89,.3-3.17,2.08-2.87,3.96l1.42,8.86-3.61,12.7c-.2,.7,.12,1.47,.8,1.81Z"/><path class="cls-1" d="M365.74,77.01l.68,25.72c.02,.78,.64,1.44,1.44,1.5,.85,.06,1.59-.58,1.66-1.43l1.92-26.49,.04-.51-.31-.78-3.49-8.74c-.05-.13-.12-.27-.19-.39-.93-1.67-3.03-2.27-4.7-1.35-1.67,.93-2.27,3.03-1.35,4.7l4.31,7.77Z"/><path class="cls-1" d="M347.57,75.02l6.78,5.88,5.4,12.05c.3,.67,1.04,1.05,1.78,.88,.83-.2,1.35-1.04,1.15-1.87l-3.28-13.73-.11-.46-.59-.66-6.28-7.01c-.09-.1-.2-.21-.31-.31-1.44-1.25-3.63-1.09-4.88,.35-1.25,1.44-1.09,3.63,.35,4.88Z"/><path class="cls-1" d="M336.22,84.9l8.3,3.18,17.06,19.26c.52,.58,1.42,.7,2.07,.23,.69-.5,.85-1.47,.35-2.16l-15.56-21.53-.3-.41-.74-.4-8.29-4.45c-.12-.06-.27-.13-.4-.18-1.78-.68-3.78,.21-4.47,1.99-.68,1.78,.21,3.78,1.99,4.47Z"/><path class="cls-1" d="M329.32,98.24l8.97,.14,11.88,5.76c.66,.32,1.47,.14,1.92-.47,.51-.69,.37-1.66-.32-2.17l-11.34-8.41-.38-.28-.88-.13-9.31-1.33c-.14-.02-.29-.03-.43-.03-1.91-.03-3.48,1.49-3.51,3.4-.03,1.91,1.49,3.48,3.4,3.51Z"/><path class="cls-1" d="M326.97,113.11l8.4-2.89,25.45,3.79c.78,.11,1.53-.38,1.73-1.15,.21-.83-.29-1.67-1.12-1.88l-25.76-6.49-.5-.12-.82,.17-9.21,1.92c-.13,.03-.29,.07-.42,.12-1.81,.62-2.77,2.59-2.14,4.4,.62,1.81,2.59,2.77,4.4,2.14Z"/><path class="cls-1" d="M350.03,118.88c.71-.18,1.22-.84,1.17-1.6-.05-.86-.79-1.51-1.64-1.46l-14.09,.85-.47,.03-.75,.47-7.99,4.97c-.12,.07-.25,.16-.36,.25-1.48,1.2-1.71,3.38-.5,4.87,1.2,1.48,3.38,1.71,4.87,.5l6.96-5.66,12.81-3.22Z"/><path class="cls-1" d="M364.53,119.59c.67-.41,.93-1.27,.58-1.99-.37-.77-1.3-1.09-2.07-.72l-23.9,11.59-.46,.22-.52,.66-5.82,7.39c-.08,.11-.18,.24-.25,.36-.98,1.64-.45,3.76,1.18,4.75,1.64,.98,3.76,.45,4.75-1.18l4.58-7.62,21.93-13.45Z"/><path class="cls-1" d="M359.4,130.26c.43-.59,.39-1.43-.13-1.98-.59-.62-1.57-.65-2.2-.06l-10.25,9.71-.34,.32-.28,.84-2.93,8.94c-.04,.13-.08,.28-.11,.42-.36,1.88,.87,3.69,2.74,4.05,1.88,.36,3.69-.87,4.05-2.74l1.7-8.81,7.74-10.7Z"/><path class="cls-1" d="M362.8,145.89l8.15-24.4c.25-.74-.1-1.58-.83-1.9-.78-.35-1.7,0-2.05,.78l-10.86,24.24-.21,.47,.03,.84,.29,9.4c0,.14,.02,.3,.04,.43,.3,1.89,2.07,3.17,3.96,2.88s3.17-2.07,2.88-3.96l-1.39-8.78Z"/><path class="cls-1" d="M374.83,146.13l-.95-13.17c-.05-.73-.62-1.34-1.37-1.43-.85-.1-1.62,.51-1.72,1.37l-1.61,14.02-.05,.47,.33,.82,3.5,8.73c.05,.13,.12,.27,.19,.39,.93,1.67,3.03,2.27,4.7,1.34,1.67-.93,2.27-3.03,1.34-4.7l-4.36-7.84Z"/><path class="cls-1" d="M393.24,148.57l-6.71-5.83-9.44-23.94c-.29-.73-1.09-1.14-1.86-.92-.82,.23-1.3,1.09-1.07,1.91l7.26,25.55,.14,.49,.56,.63,6.27,7.02c.09,.1,.2,.21,.31,.31,1.44,1.25,3.63,1.1,4.88-.34,1.25-1.44,1.1-3.63-.34-4.88Z"/><path class="cls-1" d="M404.29,138.39l-8.38-3.2-9.19-9.48c-.51-.53-1.34-.63-1.97-.21-.72,.47-.91,1.44-.44,2.15l7.78,11.78,.26,.39,.78,.42,8.3,4.44c.12,.06,.27,.13,.4,.18,1.78,.68,3.78-.21,4.47-2,.68-1.78-.21-3.78-2-4.47Z"/><path class="cls-1" d="M411.58,125.22l-8.88-.16-22.62-12.27c-.69-.37-1.57-.17-2.02,.49-.48,.71-.3,1.67,.41,2.15l21.99,14.91,.42,.29,.83,.12,9.31,1.35c.14,.02,.29,.03,.43,.04,1.91,.03,3.49-1.49,3.52-3.4,.03-1.91-1.49-3.49-3.4-3.52Z"/><path class="cls-1" d="M417.9,112.46c-.62-1.81-2.59-2.76-4.4-2.14l-8.48,2.93-13.14-1.35c-.73-.08-1.43,.37-1.65,1.1-.24,.82,.22,1.69,1.05,1.93l13.53,4.02,.45,.13,.87-.18,9.21-1.93c.13-.03,.29-.07,.42-.12,1.81-.62,2.76-2.59,2.14-4.4Z"/><path class="cls-1" d="M378.51,106.29c-.77,.16-1.31,.88-1.23,1.67,.09,.85,.85,1.47,1.7,1.38l26.43-2.71,.51-.05,.72-.44,8-4.95c.12-.07,.25-.16,.36-.25,1.48-1.2,1.71-3.38,.51-4.86-1.2-1.48-3.38-1.71-4.86-.51l-6.91,5.59-25.21,5.14Z"/><path class="cls-1" d="M386.98,98.01c-.61,.41-.86,1.21-.55,1.9,.34,.79,1.26,1.15,2.04,.81l12.95-5.62,.43-.19,.55-.7,5.81-7.4c.08-.11,.17-.24,.25-.36,.98-1.64,.45-3.76-1.19-4.74-1.64-.98-3.76-.45-4.74,1.19l-4.61,7.7-10.93,7.41Z"/></g><path class="cls-1" d="M370.24,185.72c-40.87,0-74.12-33.25-74.12-74.12s33.25-74.12,74.12-74.12,74.12,33.25,74.12,74.12-33.25,74.12-74.12,74.12Zm0-130.75c-31.23,0-56.63,25.41-56.63,56.63s25.41,56.63,56.63,56.63,56.63-25.41,56.63-56.63-25.41-56.63-56.63-56.63Z"/></g><g><path class="cls-1" d="M72.11,163.67l-7.49-26.44h-29.83l-7.64,26.44H0L29.27,58.61h41.01l29.55,105.06h-27.71Zm-18.67-73.24c-1.27-5.09-2.4-10.75-3.25-16.12h-.99c-.85,5.37-1.84,11.03-3.25,16.12l-7.49,27.86h22.62l-7.64-27.86Z"/><path class="cls-1" d="M113.14,163.67V58.61h71.55v19.23h-45.11v22.91h42.14v18.24h-42.14v25.59h45.11v19.09H113.14Z"/><path class="cls-1" d="M264.73,163.67l-21.49-37.47h-15.84v37.47h-25.45V58.61c10.46-.56,20.93-1.27,33.93-1.27,26.44,0,48.78,5.09,48.78,33.93v.99c0,15.56-6.22,23.9-16.69,28.99l23.47,42.42h-26.72Zm-5.66-71.97c0-11.88-6.79-14.56-22.34-14.56-3.39,0-5.94,0-9.33,.14v30.54h9.62c15.69,0,22.06-3.68,22.06-15.13v-.99Z"/><path class="cls-1" d="M491.35,165.65c-5.23,0-12.58-.99-17.39-2.26v38.72h-12.58V85.9h12.16v5.23c6.93-4.81,15.13-7.21,22.62-7.21,17.82,0,28.14,10.04,28.14,36.2v7.64c0,29.98-14.28,37.89-32.95,37.89Zm20.36-45.53c0-19.09-5.94-25.03-17.53-25.03-6.08,0-11.03,1.27-20.22,5.8v51.89c6.36,1.27,12.16,2.12,17.39,2.12,12.44,0,20.36-4.38,20.36-27.15v-7.64Z"/><path class="cls-1" d="M552.46,129.45v1.56c0,13.43,1.98,23.61,23.47,23.61,8.62,0,19.8-.99,27.15-2.26v10.18c-5.37,1.41-14.85,3.11-27.71,3.11-27.57,0-35.63-12.3-35.63-37.47v-5.94c0-24.46,10.89-38.32,32.95-38.32s33.37,13.71,33.37,39.87v5.65h-53.59Zm40.44-11.88c0-9.47-1.98-22.62-20.08-22.62s-20.22,13.15-20.22,22.62v1.41h40.3v-1.41Z"/><path class="cls-1" d="M637.31,101.88v61.79h-12.58V85.9h12.44v6.22c7.35-5.8,16.83-8.2,27.71-8.2v11.31c-10.18,0-21.63,2.83-27.57,6.64Z"/><path class="cls-1" d="M697.27,96.51v67.16h-12.73V96.51l-14.71-1.13v-9.47h14.71v-9.33c0-12.02,1.7-24.18,20.08-24.18,6.08,0,11.45,.99,14.99,1.98v8.63c-3.39-.14-8.48-.57-13.29-.57-8.62,0-9.05,4.24-9.05,14.14v9.33h22.06v10.61h-22.06Z"/><path class="cls-1" d="M744.37,129.45v1.56c0,13.43,1.98,23.61,23.47,23.61,8.62,0,19.8-.99,27.15-2.26v10.18c-5.37,1.41-14.85,3.11-27.71,3.11-27.57,0-35.63-12.3-35.63-37.47v-5.94c0-24.46,10.89-38.32,32.95-38.32s33.37,13.71,33.37,39.87v5.65h-53.59Zm40.44-11.88c0-9.47-1.98-22.62-20.08-22.62s-20.22,13.15-20.22,22.62v1.41h40.3v-1.41Z"/><path class="cls-1" d="M844.63,165.65c-21.21,0-31.11-12.87-31.11-35.06v-11.74c0-22.34,9.9-34.92,31.11-34.92,11.31,0,19.51,1.84,22.2,2.69v9.61c-9.47-.99-16.26-1.41-20.36-1.41-12.44,0-20.22,4.66-20.22,24.04v11.74c0,19.37,7.78,24.18,20.22,24.18,4.1,0,10.89-.42,20.36-1.41v9.61c-2.69,.85-10.89,2.69-22.2,2.69Z"/><path class="cls-1" d="M911.67,165.65c-14.14,0-19.23-5.09-19.23-19.79v-49.35l-15.7-1.13v-9.47h15.7v-20.22h12.73v20.22h20.79v10.61h-20.79v48.78c0,8.77,.71,10.18,7.92,10.18,4.38,0,10.46-.42,12.87-.71v8.77c-2.12,.71-8.34,2.12-14.28,2.12Z"/></g><path class="cls-1" d="M424.38,201.92c-7.54,3.82-15.47,6.66-23.52,8.55-8.05,1.9-16.28,2.68-24.38,2.57-8.1-.29-16.13-.71-23.93-2.47-15.61-3.28-30.16-10.45-42.17-20.42-4.73-3.92-9.08-8.29-12.98-13h-27.82c7.93,11.23,17.72,21.02,28.85,28.79,15.38,10.76,33.25,17.69,51.56,19.99,18.3,2.67,36.98-.55,53.51-7.35,8.27-3.46,16.06-7.84,23.14-13.04,7.06-5.25,13.42-11.26,18.97-17.86-6.56,5.6-13.7,10.37-21.21,14.23Z"/><path class="cls-1" d="M483.97,72.39c-6.58-16.01-16.53-30.45-28.99-42-17.36-15.92-39.3-26.19-62.02-29.42l-8.55-.79c-1.42-.18-2.85-.14-4.27-.15h-4.27c-2.84-.09-5.68,.17-8.5,.4-2.83,.14-5.63,.7-8.43,1.06-11.17,1.78-21.95,5.44-31.89,10.5-19.98,10.04-36.25,26.3-46.61,45.36,12.09-18.04,29.41-32.19,49.09-39.89,9.8-3.89,20.11-6.34,30.5-7.02,2.6-.09,5.18-.38,7.78-.26,2.59,.03,5.18,.03,7.75,.36l3.85,.36c1.28,.12,2.57,.2,3.83,.49l7.57,1.4c19.96,4.78,38.02,15.56,51.4,30.32,7.77,8.7,13.85,18.68,18.07,29.29h23.7Z"/></svg>