<?xml version="1.0" encoding="UTF-8"?>
<svg width="321px" height="89px" viewBox="0 0 321 89" version="1.1" xmlns="http://www.w3.org/2000/svg" xmlns:xlink="http://www.w3.org/1999/xlink">
    <title>LOGO</title>
    <defs>
        <polygon id="path-1" points="0.0298841339 0.0925335721 6.25800735 0.0925335721 6.25800735 21.0985499 0.0298841339 21.0985499"></polygon>
        <polygon id="path-3" points="0.0852951358 0.0732342584 9.91493882 0.0732342584 9.91493882 10.0741176 0.0852951358 10.0741176"></polygon>
    </defs>
    <g id="Page-1" stroke="none" stroke-width="1" fill="none" fill-rule="evenodd">
        <g id="01.Beko_HarvestFresh_Desktop_2" transform="translate(-825.000000, -85.000000)">
            <g id="01" transform="translate(-274.000000, -691.000000)">
                <g id="LOGO" transform="translate(1099.000000, 776.500000)">
                    <polygon id="Fill-1" fill="#FEFEFE" points="19.4700376 55.4074509 19.4700376 67.4145652 7.83859624 67.4145652 7.83859624 55.4074509 -1.90987765e-05 55.4074509 -1.90987765e-05 86.3843295 7.83859624 86.3843295 7.83859624 73.3348039 19.4700376 73.3348039 19.4700376 86.3843295 27.2671131 86.3843295 27.2671131 55.4074509"></polygon>
                    <g id="Group-38" transform="translate(31.131006, 0.002960)">
                        <path d="M15.8105306,64.785017 C15.4357171,63.2837577 15.102348,61.6162435 14.852154,60.032 L14.5604202,60.032 C14.3102262,61.6162435 14.0183969,63.2837577 13.6010886,64.785017 L11.3917422,72.9984458 L18.0623718,72.9984458 L15.8105306,64.785017 Z M21.3141295,86.3813405 L19.104783,78.5852199 L10.3077911,78.5852199 L8.05594987,86.3813405 L0.0510796777,86.3813405 L8.68191226,55.4045574 L20.7722017,55.4045574 L29.4860185,86.3813405 L21.3141295,86.3813405 Z" id="Fill-2" fill="#FEFEFE"></path>
                        <path d="M50.2453095,65.1599069 C50.2453095,61.6578597 48.2437577,60.8656425 43.6577595,60.8656425 C42.6569836,60.8656425 41.9063062,60.8656425 40.9063897,60.9081373 L40.9063897,69.9128284 L43.7409346,69.9128284 C48.3692366,69.9128284 50.2453095,68.8289728 50.2453095,65.4524047 L50.2453095,65.1599069 Z M51.9127281,86.3814169 L45.5754676,75.3333477 L40.9063897,75.3333477 L40.9063897,86.3814169 L33.4011435,86.3814169 L33.4011435,55.4045383 C36.4866464,55.2374241 39.5722447,55.0296294 43.4075655,55.0296294 C51.2037816,55.0296294 57.7913315,56.5300292 57.7913315,65.0351919 L57.7913315,65.3269257 C57.7913315,69.9128284 55.9567986,72.3724643 52.8712002,73.8737237 L59.7921194,86.3814169 L51.9127281,86.3814169 Z" id="Fill-4" fill="#FEFEFE"></path>
                        <path d="M79.7192957,86.3813691 L67.8782453,86.3813691 L59.3730827,55.4044906 L67.3363175,55.4044906 L72.7144375,76.1671525 C73.1317457,77.9176509 73.5065592,80.1280477 73.7983885,81.7954664 L73.8823277,81.7954664 C74.2156968,80.085553 74.5905103,77.9176509 75.0078186,76.1671525 L80.3859385,55.4044906 L88.2660937,55.4044906 L79.7192957,86.3813691 Z" id="Fill-6" fill="#FEFEFE"></path>
                        <polygon id="Fill-8" fill="#FEFEFE" points="92.4728666 86.3813691 92.4728666 55.4044906 113.568898 55.4044906 113.568898 61.0743444 100.269847 61.0743444 100.269847 67.8281492 112.693601 67.8281492 112.693601 73.2071286 100.269847 73.2071286 100.269847 80.7531507 113.568898 80.7531507 113.568898 86.3813691"></polygon>
                        <path d="M128.783756,87.0903921 C124.656702,87.0903921 120.320898,86.5900042 118.319346,86.0896162 L118.319346,81.0033256 C120.98754,81.2118842 123.864485,81.503618 127.90846,81.503618 C131.410507,81.503618 132.870131,80.4613023 132.870131,78.1263814 C132.870131,76.3757875 132.119549,75.6667454 129.201065,74.4156801 L124.698242,72.4979719 C120.278594,70.6219946 117.527129,68.4124572 117.527129,63.2837672 C117.527129,57.1550654 121.779758,54.7369693 129.618373,54.7369693 C133.745428,54.7369693 137.247379,55.3629317 139.082008,55.7793805 L139.082008,60.7825915 C136.205064,60.5323975 133.495234,60.2822035 130.034822,60.2822035 C126.866048,60.2822035 125.19863,60.9080704 125.19863,63.0344327 C125.19863,64.6179123 125.865272,65.2438747 128.700677,66.4109054 L133.077925,68.2038985 C138.248251,70.3301653 140.666347,72.7898013 140.666347,77.6674378 C140.666347,84.087969 136.288143,87.0903921 128.783756,87.0903921" id="Fill-10" fill="#FEFEFE"></path>
                        <polygon id="Fill-12" fill="#FEFEFE" points="160.425616 61.074373 160.425616 86.3813978 152.58786 86.3813978 152.58786 61.074373 143.623754 61.074373 143.623754 55.4045192 169.389627 55.4045192 169.389627 61.074373"></polygon>
                        <path d="M179.392716,66.5779528 L179.392716,86.3813787 L175.640475,86.3813787 L175.640475,66.5779528 L171.304766,66.2446792 L171.304766,63.4509102 L175.640475,63.4509102 L175.640475,60.6994449 C175.640475,57.1549985 176.140863,53.5699672 181.561382,53.5699672 C183.353611,53.5699672 184.937855,53.861701 185.980266,54.1535303 L185.980266,56.6970098 C184.97949,56.6555655 183.47909,56.529991 182.060911,56.529991 C179.518195,56.529991 179.392716,57.7809609 179.392716,60.6994449 L179.392716,63.4509102 L185.897091,63.4509102 L185.897091,66.5779528 L179.392716,66.5779528 Z" id="Fill-14" fill="#FEFEFE"></path>
                        <path d="M194.150436,68.1622728 L194.150436,86.3813596 L190.43983,86.3813596 L190.43983,63.4508911 L194.108896,63.4508911 L194.108896,65.2854241 C196.276799,63.5764655 199.069708,62.867328 202.280021,62.867328 L202.280021,66.2022608 C199.278362,66.2022608 195.90103,67.0359224 194.150436,68.1622728" id="Fill-16" fill="#FEFEFE"></path>
                        <path d="M220.247129,72.7898108 C220.247129,69.9969012 219.663661,66.1191811 214.327081,66.1191811 C209.07358,66.1191811 208.365398,69.9969012 208.365398,72.7898108 L208.365398,73.2071191 L220.247129,73.2071191 L220.247129,72.7898108 Z M208.323858,76.291858 L208.323858,76.7507061 C208.323858,80.7115058 208.907421,83.713165 215.244682,83.713165 C217.787493,83.713165 221.08079,83.4213357 223.249552,83.0455673 L223.249552,86.0480859 C221.665213,86.4644393 218.871444,86.9648272 215.077663,86.9648272 C206.947314,86.9648272 204.571712,83.338256 204.571712,75.916949 L204.571712,74.1654957 C204.571712,66.9528427 207.78193,62.867328 214.285446,62.867328 C221.03925,62.867328 224.124849,66.9113029 224.124849,74.6243438 L224.124849,76.291858 L208.323858,76.291858 Z" id="Fill-18" fill="#FEFEFE"></path>
                        <path d="M236.296633,86.964875 C233.086415,86.964875 229.542732,86.2983277 228.792246,86.0480382 L228.792246,83.171094 C230.167835,83.295809 233.419688,83.7546571 236.171918,83.7546571 C240.090414,83.7546571 241.091189,82.6707061 241.091189,80.6699182 C241.091189,78.6268266 240.382147,78.0017237 236.463651,76.33335 L234.795373,75.6251674 C230.376585,73.7489991 228.500417,71.8729263 228.500417,68.5787693 C228.500417,64.7434485 231.043132,62.8672802 236.797021,62.8672802 C239.881759,62.8672802 242.884087,63.4093035 243.71794,63.7011328 L243.71794,66.4940424 C241.299844,66.2447078 238.547519,66.0775936 236.964039,66.0775936 C233.628343,66.0775936 232.252658,66.4940424 232.252658,68.5787693 C232.252658,70.3717625 233.00324,71.1223444 236.254997,72.5395691 L237.922511,73.2486112 C243.258996,75.6251674 244.843431,77.0424876 244.843431,80.5859791 C244.843431,83.8801361 243.091977,86.964875 236.296633,86.964875" id="Fill-20" fill="#FEFEFE"></path>
                        <path d="M264.477956,86.3813691 L264.477956,71.8728881 C264.477956,67.3701605 263.310926,66.1190952 260.142343,66.1190952 C257.515593,66.1190952 254.888843,67.035932 253.430078,67.7450695 L253.430078,86.3813691 L249.719377,86.3813691 L249.719377,54.1118854 L253.430078,54.1118854 L253.430078,64.7434103 C254.888843,63.9928284 257.557037,62.8673375 260.89283,62.8673375 C265.896136,62.8673375 268.230198,65.7442817 268.230198,71.7474091 L268.230198,86.3813691 L264.477956,86.3813691 Z" id="Fill-22" fill="#FEFEFE"></path>
                        <path d="M237.696583,19.64906 L237.642342,18.6603163 L236.849456,19.2787347 C235.243727,20.5315189 233.461524,21.6499433 231.604073,22.4394867 C230.67062,22.8285288 229.728477,23.1664816 228.774398,23.4121874 C227.837508,23.6431871 226.800635,23.7734408 225.785344,23.8972963 C223.728024,24.1169323 221.619805,24.2331483 219.466514,24.5149508 C217.31666,24.7697284 215.102539,25.1862728 212.918498,26.057177 C211.831969,26.5067622 210.757567,27.0909937 209.780665,27.8407162 C209.436027,28.1215637 209.106956,28.4212235 208.779221,28.7218383 C206.980593,27.9195942 205.116362,27.2784482 203.195693,26.8812892 C198.177203,25.8433662 192.878152,26.1209669 188.065642,27.7700507 C185.656618,28.5952134 183.383004,29.7525992 181.27068,31.1390749 C179.219853,32.6061474 177.23931,34.1995583 175.640456,36.1487795 C172.278116,39.9007341 170.190811,44.6480215 169.245422,49.4907073 C169.159573,49.9362817 169.432876,50.3808057 169.87826,50.4971173 C170.34236,50.618299 170.816678,50.3404118 170.93786,49.8765025 L170.94569,49.8467084 C172.118546,45.3562041 174.298958,41.1239152 177.514046,37.849048 C179.049015,36.1440048 180.923942,34.7962996 182.825129,33.564333 C184.787433,32.4125813 186.867385,31.4784602 189.038916,30.8509699 C193.381787,29.6306535 198.005696,29.5092808 202.352291,30.5794808 C203.636684,30.8970934 204.868555,31.3626261 206.075598,31.8849776 C205.154464,33.3024888 204.446186,34.8615219 203.99746,36.4941808 C202.741047,40.808117 203.731127,45.7195583 206.510668,49.1659326 C205.829605,50.2645897 205.186359,51.3987705 204.596779,52.5833721 C204.564121,52.6492629 204.533563,52.7196419 204.507397,52.7901164 C204.107755,53.8718711 204.66076,55.0729931 205.742515,55.4727305 C206.824365,55.8724679 208.025392,55.3194628 208.425129,54.2376127 L208.436493,54.2070546 C209.972321,50.0502059 212.418206,46.0129155 215.209779,42.3227454 C218.043369,38.6625604 221.269343,35.1796121 225.19395,32.7119546 L225.214195,32.699254 C225.459901,32.5435034 225.554058,32.2243629 225.422945,31.9572665 C225.282473,31.6706893 224.936308,31.5523724 224.649731,31.6928439 C220.247845,33.8517696 216.540486,37.099994 213.183207,40.5965025 C211.34581,42.5652044 209.624914,44.6474485 208.053849,46.8717875 C206.578373,43.9320084 206.304306,40.5081707 207.266215,37.4135959 C207.794297,35.618311 208.710847,33.947168 209.898122,32.4930827 C210.493909,31.7651328 211.175544,31.1127186 211.896523,30.5009848 C212.600313,29.9644047 213.362067,29.4761444 214.218457,29.0846195 C217.699877,27.5345628 221.962246,27.2318472 226.178588,26.3267562 C228.278976,25.8989436 230.554309,25.2455745 232.437543,24.0844643 C233.893348,23.223014 235.236087,22.2413369 236.449623,21.0998985 C235.893085,24.5221128 235.265881,27.9314354 234.502599,31.2751537 C233.610495,35.0938585 232.566651,38.8772307 231.069689,42.3482423 C230.294947,44.062071 229.452596,45.7212772 228.390322,47.1049836 C227.848776,47.7727723 227.282688,48.402459 226.662073,48.8805013 C225.998486,49.3981737 225.263184,49.8911131 224.502384,50.2833065 C221.460617,51.9065115 217.952172,52.53849 214.298289,52.055291 L214.251115,52.0487019 C213.760754,51.984912 213.260175,52.2252701 213.014947,52.6879379 C212.69934,53.2837243 212.926424,54.0224649 213.522115,54.3380722 C217.443189,56.4157326 222.51783,56.1796717 226.489993,54.0078544 C227.48991,53.4632528 228.411521,52.8318472 229.299901,52.101319 C230.231826,51.3212295 230.973336,50.4296031 231.651151,49.5235571 C232.940414,47.6814802 233.887045,45.7423814 234.606305,43.7646076 C236.049027,39.8138347 236.810304,35.7817965 237.292739,31.7542465 C237.75025,27.7212534 237.918415,23.6907431 237.696583,19.64906" id="Fill-24" fill="#FEFEFE"></path>
                        <g id="Group-28" transform="translate(193.757087, 0.000000)">
                            <mask id="mask-2" fill="white">
                                <use xlink:href="#path-1"></use>
                            </mask>
                            <g id="Clip-27"></g>
                            <path d="M3.87552372,21.0104017 C5.54733512,20.6057941 6.57456282,18.9225234 6.16985974,17.250712 C5.49758281,14.473177 5.00111012,11.6917266 4.49126828,8.91046732 C4.03299314,6.12796658 3.5622083,3.34584781 3.26293047,0.559813787 C3.23628768,0.310383766 3.03317219,0.109178156 2.77457475,0.0935171591 C2.48618323,0.0758507908 2.23818562,0.295391226 2.22051925,0.583782751 C2.04996717,3.38070307 1.70781259,6.18163414 1.37807222,8.98218323 C0.996765145,11.7839737 0.629113697,14.5853823 0.0854670248,17.3909925 C0.00563413906,17.812407 0.00840346165,18.2721146 0.115929573,18.7162566 C0.520632647,20.3878771 2.20380782,21.4151047 3.87552372,21.0104017" id="Fill-26" fill="#FEFEFE" mask="url(#mask-2)"></path>
                        </g>
                        <path d="M172.27274,29.365276 C173.573462,30.0546464 175.186831,29.5589376 175.876011,28.258311 C176.565381,26.9575888 176.069959,25.3444106 174.769141,24.6550403 C172.587583,23.4987049 170.503047,22.2272993 168.411158,20.9646792 C166.347536,19.6682543 164.277133,18.3800418 162.301269,16.979433 C162.126038,16.854909 161.881478,16.8714294 161.724868,17.0288988 C161.5504,17.2041301 161.550973,17.4877469 161.726396,17.6622143 C163.442898,19.3707908 165.064862,21.1915727 166.693701,23.0042375 C168.294083,24.8508027 169.902009,26.688296 171.412722,28.6410504 C171.63656,28.9279141 171.930585,29.1839332 172.27274,29.365276" id="Fill-29" fill="#FEFEFE"></path>
                        <path d="M162.358441,43.4756144 C160.126749,43.5288045 157.922655,43.4174587 155.704141,43.3920573 C153.50358,43.2593208 151.288504,43.2137702 149.100834,43.0047341 C148.926176,42.9879272 148.761067,43.1015649 148.718859,43.2770827 C148.672449,43.4693118 148.790575,43.6625915 148.982708,43.7090015 C151.119098,44.2249549 153.227889,44.9042029 155.351482,45.4961695 C157.457027,46.1956622 159.5768,46.8092104 161.669166,47.5871036 C161.912962,47.6767723 162.183878,47.7261426 162.459378,47.7194581 C163.631184,47.6915739 164.55862,46.7190642 164.530831,45.5470677 C164.502947,44.3751668 163.530342,43.4477302 162.358441,43.4756144" id="Fill-31" fill="#FEFEFE"></path>
                        <polygon id="Fill-33" fill="#FEFEFE" points="274.287804 54.4218872 274.287804 62.7867693 272.313277 62.7867693 272.313277 54.4218872 269.18251 54.4218872 269.18251 52.785886 277.418571 52.785886 277.418571 54.4218872"></polygon>
                        <g id="Group-37" transform="translate(278.842137, 52.712623)">
                            <mask id="mask-4" fill="white">
                                <use xlink:href="#path-3"></use>
                            </mask>
                            <g id="Clip-36"></g>
                            <path d="M7.99696329,10.0741176 L7.99696329,4.74135721 C7.99696329,4.41228529 8.00402984,4.11167055 8.01816294,3.83874903 C8.03229603,3.56620949 8.04852999,3.26530827 8.06743778,2.93623635 L8.03926708,2.93623635 C7.92648881,3.19951298 7.80884035,3.44865652 7.68679916,3.68357147 C7.5644715,3.9187729 7.44214384,4.15387884 7.32010266,4.38879379 L5.76880454,7.33621247 L4.20337332,7.33621247 L2.6802459,4.38879379 C2.55801373,4.16314175 2.44275261,3.92574396 2.33474903,3.67660042 C2.22655446,3.42745688 2.10661415,3.18070069 1.97502358,2.93623635 L1.94704387,2.93623635 C1.96566517,3.26530827 1.97979827,3.56372665 1.98925216,3.83168248 C1.99861056,4.09963832 2.00328976,4.40283139 2.00328976,4.74135721 L2.00328976,10.0741176 L0.0852951358,10.0741176 L0.0852951358,0.0732342584 L2.2290373,0.0732342584 L4.33028469,4.17717935 C4.43360907,4.38411459 4.53941629,4.60270009 4.64761086,4.83303133 C4.75561444,5.06345807 4.86132617,5.28662728 4.96493703,5.50282543 L4.99310773,5.50282543 C5.0965276,5.27726887 5.20223933,5.04942047 5.3104339,4.81889824 C5.41834199,4.58856699 5.5290194,4.36549329 5.64179767,4.14900865 L7.77140674,0.0732342584 L9.91495792,0.0732342584 L9.91495792,10.0741176 L7.99696329,10.0741176 Z" id="Fill-35" fill="#FEFEFE" mask="url(#mask-4)"></path>
                        </g>
                    </g>
                </g>
            </g>
        </g>
    </g>
</svg>