<svg width="46" height="46" viewBox="0 0 46 46" fill="none" xmlns="http://www.w3.org/2000/svg">
<path d="M24.2 3L44.3 43C44.4411 43.2443 44.515 43.5215 44.5144 43.8036C44.5138 44.0857 44.4386 44.3626 44.2964 44.6063C44.1543 44.8499 43.9503 45.0517 43.705 45.1911C43.4598 45.3305 43.1821 45.4025 42.9 45.4H2.6C2.31793 45.4025 2.04019 45.3305 1.79496 45.1911C1.54972 45.0517 1.34569 44.8499 1.20356 44.6063C1.06142 44.3626 0.986232 44.0857 0.985607 43.8036C0.984983 43.5215 1.05895 43.2443 1.2 43L21.3 3C21.4287 2.72402 21.6336 2.49051 21.8904 2.3269C22.1473 2.16329 22.4455 2.07639 22.75 2.07639C23.0545 2.07639 23.3527 2.16329 23.6096 2.3269C23.8664 2.49051 24.0713 2.72402 24.2 3Z" fill="#5E6E84"/>
<path d="M24.4 32.6V16.2H21.4V32.6H24.4ZM23 39.4C23.6 39.4 24 39.2 24.4 38.8C24.8 38.4 25 37.9 25 37.4C25 36.8 24.8 36.4 24.4 35.9C24.0149 35.5596 23.5136 35.3806 23 35.4C22.4864 35.3806 21.9851 35.5596 21.6 35.9C21.4012 36.0946 21.2451 36.3284 21.1418 36.5867C21.0385 36.845 20.9902 37.122 21 37.4C21 37.9 21.2 38.4 21.6 38.8C21.9 39.2 22.4 39.4 23 39.4Z" fill="white"/>
</svg>
