<?xml version="1.0" encoding="UTF-8"?>
<svg width="42px" height="42px" viewBox="0 0 42 42" version="1.1" xmlns="http://www.w3.org/2000/svg" xmlns:xlink="http://www.w3.org/1999/xlink">
    <title>Group</title>
    <defs>
        <polygon id="path-1" points="0 0 31 0 31 22 0 22"></polygon>
        <polygon id="path-3" points="2.21785714e-05 0.00705722143 22.3489472 0.00705722143 22.3489472 22.356 2.21785714e-05 22.356"></polygon>
    </defs>
    <g id="Symbols" stroke="none" stroke-width="1" fill="none" fill-rule="evenodd">
        <g id="Footer" >
            <g id="Group-43" >
                <g id="Group" >

                    <g id="Group-8" transform="translate(10.000000, 10.000000)">
                        <g id="Group-3">
                            <mask id="mask-4" fill="white">
                                <use xlink:href="#path-3"></use>
                            </mask>
                            <g id="Clip-2"></g>
                            <path d="M11.1744736,0.00705722143 C8.13969096,0.00705722143 7.75910668,0.0199207929 6.56727461,0.07430265 C5.37783782,0.128551436 4.56556982,0.317468507 3.85474661,0.593724793 C3.11997054,0.879251721 2.49675268,1.26134415 1.87553089,1.88256594 C1.25426475,2.50383208 0.872216679,3.12700558 0.586645393,3.86178165 C0.310389107,4.57260486 0.121516393,5.38487286 0.06722325,6.57430965 C0.0128413929,7.76618608 2.21785712e-05,8.14668165 2.21785712e-05,11.1815087 C2.21785712e-05,14.2163357 0.0128413929,14.5968756 0.06722325,15.788752 C0.121516393,16.9781444 0.310389107,17.7904568 0.586645393,18.5012357 C0.872216679,19.2360117 1.25426475,19.8592296 1.87553089,20.4804514 C2.49675268,21.1017175 3.11997054,21.4837656 3.85474661,21.7693812 C4.56556982,22.0455932 5.37783782,22.2345102 6.56727461,22.2888034 C7.75910668,22.3431409 8.13969096,22.3560044 11.1744736,22.3560044 C14.2093006,22.3560044 14.5897962,22.3431409 15.7816726,22.2888034 C16.9711094,22.2345102 17.7833774,22.0455932 18.4942006,21.7693812 C19.229021,21.4837656 19.8521945,21.1017175 20.4734163,20.4804514 C21.0946825,19.8592296 21.4767305,19.2360561 21.7623018,18.5012357 C22.0385581,17.7904568 22.2274752,16.9781444 22.281724,15.788752 C22.3361058,14.5968756 22.3489694,14.2163357 22.3489694,11.1815087 C22.3489694,8.14672601 22.3361058,7.76618608 22.281724,6.57430965 C22.2274752,5.38487286 22.0385581,4.57260486 21.7623018,3.86178165 C21.4767305,3.12700558 21.0946825,2.50383208 20.4734163,1.88256594 C19.8521945,1.26134415 19.229021,0.879251721 18.4942006,0.593724793 C17.7833774,0.317468507 16.9711094,0.128551436 15.7816726,0.07430265 C14.5897962,0.0199207929 14.2093006,0.00705722143 11.1744736,0.00705722143 M11.1744736,2.02047229 C14.1582012,2.02047229 14.5115945,2.03182772 15.6898977,2.08558858 C16.7793978,2.13531294 17.3710777,2.31735465 17.7648361,2.47038679 C18.2864317,2.67309894 18.6587212,2.91524458 19.0497295,3.30625279 C19.4407377,3.69730536 19.6828833,4.06955051 19.8856398,4.59114615 C20.0386276,4.98490451 20.2206693,5.57658444 20.2703937,6.66608458 C20.3241102,7.84438772 20.33551,8.19782544 20.33551,11.1815087 C20.33551,14.1652362 20.3241102,14.5186739 20.2703937,15.6969327 C20.2206693,16.7864772 20.0386276,17.3781572 19.8856398,17.7719155 C19.6828833,18.2934668 19.4407377,18.6657563 19.0497295,19.0567645 C18.6587212,19.4478171 18.2864317,19.6899627 17.7648361,19.8926749 C17.3710777,20.0456627 16.7793978,20.2277487 15.6898977,20.2774287 C14.511772,20.3311896 14.158423,20.3425894 11.1744736,20.3425894 C8.19052425,20.3425894 7.83717525,20.3311896 6.65904954,20.2774287 C5.56954939,20.2277487 4.97782511,20.0456627 4.58406675,19.8926749 C4.06251546,19.6899627 3.69022596,19.4478171 3.29921775,19.0567645 C2.90820954,18.6657563 2.66601954,18.2934668 2.46330739,17.7719155 C2.31031961,17.3781572 2.12827789,16.7864772 2.07855354,15.6969771 C2.02479268,14.5186739 2.01343725,14.1652362 2.01343725,11.1815087 C2.01343725,8.19782544 2.02479268,7.84438772 2.07855354,6.66608458 C2.12827789,5.57658444 2.31031961,4.98490451 2.46330739,4.59114615 C2.66601954,4.06955051 2.90820954,3.69730536 3.29921775,3.30629715 C3.69022596,2.91524458 4.06251546,2.67309894 4.58406675,2.47038679 C4.97782511,2.31735465 5.56954939,2.13531294 6.65900518,2.08558858 C7.83735268,2.03182772 8.19074604,2.02047229 11.1744736,2.02047229" id="Fill-1" fill="#FFFFFF" mask="url(#mask-4)"></path>
                        </g>
                        <path d="M11.5000213,15.0701777 C9.52827862,15.0701777 7.92982232,13.4717214 7.92982232,11.4999787 C7.92982232,9.52823611 9.52827862,7.92982232 11.5000213,7.92982232 C13.4717639,7.92982232 15.0702202,9.52823611 15.0702202,11.4999787 C15.0702202,13.4717214 13.4717639,15.0701777 11.5000213,15.0701777 M11.5000213,6 C8.46245686,6 6,8.46241434 6,11.4999787 C6,14.5375857 8.46245686,17 11.5000213,17 C14.5375857,17 17,14.5375857 17,11.4999787 C17,8.46241434 14.5375857,6 11.5000213,6" id="Fill-4" fill="#FFFFFF"></path>
                        <path d="M19,5.5 C19,6.32844856 18.3284597,7 17.5000248,7 C16.67159,7 16,6.32844856 16,5.5 C16,4.67155144 16.67159,4 17.5000248,4 C18.3284597,4 19,4.67155144 19,5.5" id="Fill-6" fill="#FFFFFF"></path>
                    </g>
                </g>
            </g>
        </g>
    </g>
</svg>