<?xml version="1.0" encoding="UTF-8"?>
<svg width="42px" height="42px" viewBox="0 0 42 42" version="1.1" xmlns="http://www.w3.org/2000/svg" xmlns:xlink="http://www.w3.org/1999/xlink">
    <title>Slice 1</title>
    <g id="Page-1" stroke="none" stroke-width="1" fill="none" fill-rule="evenodd">
        <g id="Fill-2" fill="#FFFFFF" transform="translate(10.000000, 10.000000)">
            <path d="M0,11.0001289 C0,15.5044394 2.70856754,19.3740181 6.58441959,21.0753161 C6.55348221,20.3072097 6.57891961,19.385104 6.77588759,18.549365 C6.98737896,17.656392 8.19127269,12.5554197 8.19127269,12.5554197 C8.19127269,12.5554197 7.83987563,11.8530553 7.83987563,10.8150203 C7.83987563,9.18487818 8.78466881,7.96740638 9.96132046,7.96740638 C10.9618869,7.96740638 11.4452834,8.71892688 11.4452834,9.61886086 C11.4452834,10.6246694 10.8037625,12.1291714 10.4738497,13.5226425 C10.1982492,14.6894973 11.0589099,15.6412514 12.2100382,15.6412514 C14.2941864,15.6412514 15.697884,12.9643947 15.697884,9.79279768 C15.697884,7.38191648 14.0741013,5.5774079 11.1206987,5.5774079 C7.78393053,5.5774079 5.70519646,8.06580443 5.70519646,10.8453561 C5.70519646,11.8037273 5.98775786,12.4795372 6.43033426,13.0028945 C6.63383346,13.2432608 6.66210679,13.3399401 6.58845864,13.6159703 C6.53569322,13.8183523 6.41452182,14.305616 6.36433451,14.4987168 C6.29111605,14.7773251 6.06535912,14.8769263 5.81356323,14.7740595 C4.27666298,14.1466322 3.56089234,12.4635529 3.56089234,10.5715603 C3.56089234,7.44679904 6.19624142,3.69993867 11.422596,3.69993867 C15.6223452,3.69993867 18.3865141,6.73902055 18.3865141,10.0012812 C18.3865141,14.3164441 15.9874922,17.5402049 12.4511779,17.5402049 C11.2636123,17.5402049 10.1465151,16.8982543 9.76383686,16.1690775 C9.76383686,16.1690775 9.12523779,18.7035363 8.9899727,19.1929485 C8.75673923,20.0410623 8.30024101,20.8887465 7.88284421,21.5494314 C8.87215284,21.8414459 9.9172347,22.0005156 11.0003867,22.0005156 C17.0747692,22.0005156 22,17.0755427 22,11.0001289 C22,4.92497295 17.0747692,0 11.0003867,0 C4.92540264,0 0,4.92497295 0,11.0001289" id="Fill-1"></path>
        </g>
    </g>
</svg>