<?xml version="1.0" encoding="UTF-8"?>
<svg width="42px" height="42px" viewBox="0 0 42 42" version="1.1" xmlns="http://www.w3.org/2000/svg" xmlns:xlink="http://www.w3.org/1999/xlink">
    <title>Group</title>
    <defs>
        <polygon id="path-1" points="0 0 31 0 31 22 0 22"></polygon>
        <polygon id="path-3" points="2.21785714e-05 0.00705722143 22.3489472 0.00705722143 22.3489472 22.356 2.21785714e-05 22.356"></polygon>
    </defs>
    <g id="Symbols" stroke="none" stroke-width="1" fill="none" fill-rule="evenodd">
        <g id="Footer" >
            <g id="Group-43" >
                <g id="Group" >
                    <g id="Group-3" transform="translate(5.0, 10.000000)">
                        <mask id="mask-2" fill="white">
                            <use xlink:href="#path-1"></use>
                        </mask>
                        <g id="Clip-2"></g>
                        <path d="M12.4,15.714064 L12.4,6.28567733 L20.4535951,11 L12.4,15.714064 Z M30.3521093,3.43530103 C29.9956291,2.08306679 28.9450714,1.01825024 27.6112689,0.656585136 C25.193991,0 15.4998724,0 15.4998724,0 C15.4998724,0 5.80600897,0 3.38847594,0.656585136 C2.05467342,1.01825024 1.00437091,2.08306679 0.647635511,3.43530103 C0,5.88624177 0,11 0,11 C0,11 0,16.1134995 0.647635511,18.564699 C1.00437091,19.9166745 2.05467342,20.9814911 3.38847594,21.3431562 C5.80600897,22 15.4998724,22 15.4998724,22 C15.4998724,22 25.193991,22 27.6112689,21.3431562 C28.9450714,20.9814911 29.9956291,19.9166745 30.3521093,18.564699 C31,16.1134995 31,11 31,11 C31,11 31,5.88624177 30.3521093,3.43530103 L30.3521093,3.43530103 Z" id="Fill-1" fill="#FEFEFE" mask="url(#mask-2)"></path>
                    </g>
           
                </g>
            </g>
        </g>
    </g>
</svg>